PathFileType	4	(X/Y/Z)	/Users/visionmauri/Downloads/Videos/OAW12-top_Sports2D/OAW12-top_Sports2D_px_person00.trc
DataRate	CameraRate	NumFrames	NumMarkers	Units	OrigDataRate	OrigDataStartFrame	OrigNumFrames
25.0	25.0	12	22	m	25.0	0	1729
Frame#	Time	Hip			RHip			RKnee			RAnkle			RBigToe			RSmallToe			RHeel			LHip			LKnee			LAnkle			LBigToe			LSmallToe			LHeel			Neck			Head			Nose			RShoulder			RElbow			RWrist			LShoulder			LElbow			LWrist			
		X1	Y1	Z1	X2	Y2	Z2	X3	Y3	Z3	X4	Y4	Z4	X5	Y5	Z5	X6	Y6	Z6	X7	Y7	Z7	X8	Y8	Z8	X9	Y9	Z9	X10	Y10	Z10	X11	Y11	Z11	X12	Y12	Z12	X13	Y13	Z13	X14	Y14	Z14	X15	Y15	Z15	X16	Y16	Z16	X17	Y17	Z17	X18	Y18	Z18	X19	Y19	Z19	X20	Y20	Z20	X21	Y21	Z21	X22	Y22	Z22
0	0.0	507.2892169790449	441.5134663428534	0.0	494.7941035720767	442.207657391801	0.0	495.4882729939708	499.1297820010916	0.0	493.4058118908694	543.5567760078077	0.0	494.79407631261097	557.4402342101489	0.0	487.15819704688755	554.663554444968	0.0	495.4883302595187	548.416043890664	0.0	519.7843379306934	441.51353520423686	0.0	518.3959627727555	499.82398302926214	0.0	517.0076496860534	544.250980430505	0.0	514.2309727977812	557.4403134138704	0.0	521.1727301546275	555.3577937350963	0.0	515.6192787454635	548.4159537449553	0.0	508.6776239145578	367.93122794356094	0.0	509.37181829685835	332.52851425622094	0.0	507.9834364902768	355.4361820835193	0.0	486.4640872726398	377.64959511341164	0.0	478.8281739310586	415.1349231929607	0.0	478.82817258786065	449.8435185508652	0.0	531.5852643547546	378.34386365123015	0.0	537.832837905049	416.52327707913764	0.0	535.0561276171658	449.8435608481718	0.0
1	0.04002314814814815	507.20406004843886	441.7760327709938	0.0	494.75325615861306	442.68733905985846	0.0	495.64937699562057	499.1816240993888	0.0	493.56365959755857	543.4658528893722	0.0	494.7170259112602	557.3970168379179	0.0	487.16290271901386	554.9253874441189	0.0	495.65997462722606	548.2621639321362	0.0	519.6553254240507	441.99665710433766	0.0	518.2435649469413	499.88425345487053	0.0	517.0555012443689	544.1743654264316	0.0	514.485765906725	557.6657426044277	0.0	521.4418188365319	555.5426493354688	0.0	515.6973535268997	548.2044246901638	0.0	508.77257341186447	367.40304827484533	0.0	509.6533503633148	332.3148982120123	0.0	508.09258300749053	354.90004244471675	0.0	486.43452326118427	377.7353072218021	0.0	479.0320617989931	415.24459418268066	0.0	478.85744571327956	449.82577499065064	0.0	531.629006052575	378.2607997304327	0.0	537.8381695876692	416.4175541031961	0.0	535.0732398921792	449.5123468501679	0.0
2	0.0800462962962963	507.0428672623394	441.8696176125065	0.0	494.61263968615305	442.8941282915945	0.0	495.6129190676865	499.3528741302338	0.0	493.75469934433073	543.2633327622182	0.0	494.6222476580647	557.7473338783989	0.0	487.0299851684921	555.3153712459512	0.0	495.85028042817186	548.2645366210172	0.0	519.4277621847207	442.20631531340763	0.0	518.1755516743069	500.0346090297846	0.0	517.2228543698164	544.1811433186471	0.0	514.976531299907	558.1004070098867	0.0	521.8523194639588	556.0426245608531	0.0	515.8264776072116	548.3078315486971	0.0	508.9169121220033	367.1915112011623	0.0	510.1173108668588	331.8357053921961	0.0	508.26005212513564	354.7949386424664	0.0	486.35142594727444	377.642447237687	0.0	479.2775963855396	415.34435244058517	0.0	478.76691107201697	449.8098307701784	0.0	531.6296970161985	377.9346911950447	0.0	537.899637319595	416.2085800511775	0.0	535.0835984952596	449.35705783394263	0.0
3	0.12006944444444445	506.86258783625334	441.64818984375637	0.0	494.4471487679594	442.6093717295439	0.0	495.47087391837664	499.32150790487435	0.0	493.86363541490124	542.9465952922448	0.0	494.63309708860703	558.3992121915539	0.0	486.774332184468	555.5304259813715	0.0	495.83890378517384	548.38916066366	0.0	519.2530320167671	441.9144838232693	0.0	518.2496611674135	499.9521126290518	0.0	517.4412083595811	543.96829543459	0.0	515.4582909301579	558.4330825567409	0.0	522.1460237862541	556.6105881272457	0.0	515.92781956856	548.69967204234	0.0	509.06658700210755	367.65078942076656	0.0	510.5694296775089	331.1569065769011	0.0	508.3350526032784	355.5129298631162	0.0	486.2738353945236	377.1620170917648	0.0	479.4196767550843	415.2779555745458	0.0	478.5338176658207	449.8111519947026	0.0	531.5511453370249	377.28229848927117	0.0	537.9568649469406	416.0029449776052	0.0	535.0785875078595	449.6481385282743	0.0
4	0.1600925925925926	506.7721094146292	441.3653069582388	0.0	494.4698516202371	442.21486056832134	0.0	495.60628945801005	498.8508018855865	0.0	493.8551621749072	542.7155624576312	0.0	494.75748222302786	558.7391071472543	0.0	486.62638107643795	555.4985056267503	0.0	495.55692805108674	548.399399923806	0.0	519.33408026401	441.50433160696264	0.0	518.377337710894	499.4764858976088	0.0	517.4854646059998	543.3895396738172	0.0	515.5444375806028	558.3032116368912	0.0	522.1894057509392	556.6292188537655	0.0	515.9454017134972	548.7283245000972	0.0	509.1783713349339	367.69822329508264	0.0	510.8259992031701	330.17675725518075	0.0	508.2243111365003	355.57707536236234	0.0	486.2880821455865	376.4016376974592	0.0	479.4065206850381	414.95588235253734	0.0	478.38824515153016	449.8326884338485	0.0	531.5266999168045	376.73457141405447	0.0	537.9194408584623	415.87087604226616	0.0	535.1161631024194	449.8760885686912	0.0
5	0.20011574074074073	506.79810438659985	441.3413687113363	0.0	494.65571794987267	442.104729517194	0.0	495.97963937420604	498.4455635124271	0.0	493.8190327713961	542.8435440783929	0.0	494.806340105337	558.5835150918294	0.0	486.6398059492047	555.6505913581934	0.0	495.2674888379127	548.274031517902	0.0	519.5037105812662	441.4184146322561	0.0	518.5194424520752	499.0927883815321	0.0	517.3018250346707	543.0159759485327	0.0	515.2533488290765	557.8845531745523	0.0	522.1894865678402	556.0398724779362	0.0	515.9343353454457	548.1982054500919	0.0	509.19506451869796	366.5533230639116	0.0	510.9112002028122	329.057366794186	0.0	508.1139063064699	353.8332543161415	0.0	486.40032532525447	375.89403859589635	0.0	479.3415581690502	414.66961468614846	0.0	478.582989729234	449.8390989349151	0.0	531.6656922178732	376.72567686723147	0.0	537.814135530727	415.813793105011	0.0	535.2297329748051	449.6147635778265	0.0
6	0.2401388888888889	506.8544341973231	441.5680014392939	0.0	494.6337179972889	442.1573843022876	0.0	496.0967311767595	498.5587919733062	0.0	493.83339856835556	543.182814788703	0.0	494.68876705504994	558.459671768032	0.0	486.63521954867724	556.1682844215302	0.0	495.2160309686256	548.2737112414552	0.0	519.3628438811584	441.5537571182793	0.0	518.6510394029057	499.0812441155939	0.0	517.0769820593002	543.1600070134896	0.0	514.9771340439631	557.5408466808053	0.0	522.2520368648318	555.4545269705677	0.0	515.957058604645	547.9260526461005	0.0	509.0862494377648	365.61799678110384	0.0	510.8239207129309	328.69128316233383	0.0	508.1497168762059	352.219297675079	0.0	486.4858373093482	376.0673804969798	0.0	479.30609829108	414.7860632463705	0.0	478.9553527343349	449.7777027381329	0.0	531.7604125761044	377.0644293338313	0.0	537.7465316772232	415.9909983269516	0.0	535.2581995330262	449.32088648625603	0.0
7	0.280162037037037	506.8528764858119	441.84884580931	0.0	494.4011357176723	442.21548616893136	0.0	495.9243827715954	498.77826743679947	0.0	493.8558481209066	543.3497284823312	0.0	494.56427280924606	558.6313477503228	0.0	486.65058850944007	556.7185991879984	0.0	495.2938449253326	548.5490824074725	0.0	518.9764279075297	441.6390776937846	0.0	518.648980513439	499.04994123567366	0.0	516.9423365878441	543.3053796915385	0.0	514.9558828787506	557.3610264932006	0.0	522.2312049686083	555.2131146879192	0.0	516.0002146584702	548.3924984843767	0.0	508.9515950954711	365.74252189631017	0.0	510.5168491010449	329.13275489372376	0.0	508.1882868565892	352.1672548030103	0.0	486.37226846205357	376.63655245318637	0.0	479.31001844013207	415.12033452616186	0.0	479.07206782358395	449.65737388170743	0.0	531.6821279917531	377.3200995549183	0.0	537.7306200014955	416.27423725125294	0.0	535.1350740596065	449.04868574665403	0.0
8	0.3201851851851852	506.7675696627305	441.9101512207787	0.0	494.43701309519946	442.27167992565813	0.0	495.7967180195014	498.6828924270251	0.0	493.81515407709395	543.3824700774196	0.0	494.49012363041123	558.7077695823677	0.0	486.68868007272374	556.8325291547251	0.0	495.2513947827445	548.9077377249374	0.0	518.7969001116861	441.6605705278939	0.0	518.5787609365473	498.82276958909347	0.0	516.881636817199	543.1797655868045	0.0	514.9939725635336	557.2838447181355	0.0	522.0972847020337	555.1525373237574	0.0	515.9675683456891	548.7987057974016	0.0	508.9250902269319	366.0399302248719	0.0	510.14563619203255	329.47305755959644	0.0	508.1699745083986	352.43162673241665	0.0	486.10937380574796	376.9132708409623	0.0	479.320741387485	415.2144556484121	0.0	478.8483057768442	449.52170824268126	0.0	531.6530204166327	377.31498372535566	0.0	537.7192922415909	416.0712346789685	0.0	535.1166678417213	448.4321228644569	0.0
9	0.36020833333333335	506.62843006060467	441.7599899528194	0.0	494.7376116889314	442.3593096588373	0.0	495.68507329332715	498.5359296698774	0.0	493.7792538916742	543.4652696541142	0.0	494.3217667493695	558.4179697698096	0.0	486.5602288728927	556.4288042044794	0.0	495.1374732441618	549.0416359257707	0.0	518.9191317876578	441.8347232126808	0.0	518.55679113777	498.8071767740827	0.0	516.8712698258807	543.1307528118629	0.0	514.8347622901032	557.3303941493563	0.0	522.0671588626406	555.195852695438	0.0	515.7962840562798	548.330800481895	0.0	509.0259339771325	366.0476373488424	0.0	510.0391132175765	329.69857418394395	0.0	508.2968707864077	352.3688257341238	0.0	485.9527620085415	376.79613340371003	0.0	479.28871110644315	415.1268405955216	0.0	478.58361752572563	449.4282792621958	0.0	531.7403737431762	377.3413908034172	0.0	537.7691529415584	415.44644024210066	0.0	535.26422540056	447.89766053477126	0.0
10	0.40023148148148147	506.55874881769876	441.82783678771557	0.0	494.84000211267403	442.4936223133166	0.0	495.4893746043978	498.59679720880246	0.0	493.7170185016188	543.5985095961347	0.0	494.23468742402656	558.2050138131465	0.0	486.4309724112409	556.0861869751077	0.0	495.07529418691905	548.9721614048866	0.0	519.0804650848147	442.11579074889323	0.0	518.5283370363223	499.15279482569423	0.0	516.9523512381763	543.3866090333933	0.0	514.6559619249841	557.6286193146539	0.0	522.1829966958782	555.5289502927188	0.0	515.6574329339277	547.8131174565516	0.0	509.03411954727886	366.00742976267446	0.0	510.1951464630749	329.93438988174734	0.0	508.48746459124624	352.4500845986741	0.0	485.9684896516789	376.8062086752859	0.0	479.1453069384124	415.2461491160112	0.0	478.4016204483074	449.5935311908342	0.0	531.7319534732036	377.62815024763535	0.0	537.8766201250679	415.1627443790238	0.0	535.3178432495	448.0348141145734	0.0
11	0.44025462962962963	506.65600732257843	442.10814392335743	0.0	494.66025396596996	442.5253974073071	0.0	495.4189357339378	498.5215729579236	0.0	493.4925666194784	543.7422154626606	0.0	494.4634472102153	558.3936584861086	0.0	486.4921677672132	556.1334914797483	0.0	494.97883358098426	548.9078651440317	0.0	519.1436332881127	442.1379954985099	0.0	518.5265411511643	499.18788462873243	0.0	517.1015913991845	543.6941630975161	0.0	514.8005975505506	558.109297902599	0.0	522.2687108765771	556.09016293909	0.0	515.8131480325585	548.3929559743596	0.0	508.72796937080096	365.8891622672322	0.0	510.3090582591787	329.4694849115155	0.0	508.3705406038488	352.30849999222875	0.0	485.99553568608405	376.94051040570804	0.0	478.89308260236913	415.44554087670326	0.0	478.23120333224364	449.9371729061002	0.0	531.5734778123917	377.6328866044036	0.0	537.8480808217	415.2843754271914	0.0	535.2496518723437	448.4333518798168	0.0
